<svg width="40" height="40" viewBox="0 0 40 40" fill="none" xmlns="http://www.w3.org/2000/svg">
<g id="Instagram">
<path id="Combined Shape" fill-rule="evenodd" clip-rule="evenodd" d="M20.11 0C9.24877 0 3.39388 3.96634 0.443975 19.6077C-1.89142 31.9907 5.35391 34.2911 13.5747 36.9013C15.7379 37.5881 17.9686 38.2964 20.11 39.2154C30.3898 43.6271 41.7426 28.3864 39.7761 19.6077C37.8095 10.829 30.9713 0 20.11 0ZM15.7863 9.21357C16.9051 9.16281 17.2626 9.15039 20.1111 9.15039H20.1078C22.9573 9.15039 23.3134 9.16281 24.4322 9.21357C25.5488 9.26455 26.3115 9.4408 26.9801 9.69941C27.6706 9.9663 28.254 10.3236 28.8375 10.9053C29.4209 11.4866 29.7793 12.07 30.048 12.7578C30.3059 13.4227 30.4829 14.1826 30.5353 15.2959C30.5856 16.4114 30.5987 16.7678 30.5987 19.6079C30.5987 22.448 30.5856 22.8036 30.5353 23.9191C30.4829 25.0319 30.3059 25.7921 30.048 26.4572C29.7793 27.1448 29.4209 27.7282 28.8375 28.3095C28.2547 28.8912 27.6704 29.2494 26.9808 29.5165C26.3134 29.7751 25.5504 29.9513 24.4338 30.0023C23.315 30.0531 22.9586 30.0655 20.1098 30.0655C17.2615 30.0655 16.9042 30.0531 15.7854 30.0023C14.669 29.9513 13.9066 29.7751 13.2393 29.5165C12.5499 29.2494 11.9647 28.8912 11.3819 28.3095C10.7987 27.7282 10.4404 27.1448 10.1722 26.457C9.91308 25.7921 9.7363 25.0321 9.68495 23.9188C9.63426 22.8034 9.62158 22.448 9.62158 19.6079C9.62158 16.7678 9.63469 16.4112 9.68473 15.2957C9.73499 14.1829 9.91199 13.4227 10.172 12.7576C10.4408 12.07 10.7992 11.4866 11.3826 10.9053C11.9656 10.3238 12.5508 9.96651 13.2406 9.69941C13.9075 9.4408 14.6697 9.26455 15.7863 9.21357Z" fill="#231F20"/>
<path id="Combined Shape_2" fill-rule="evenodd" clip-rule="evenodd" d="M19.1701 11.0348C19.3528 11.0346 19.5493 11.0346 19.7614 11.0347L20.111 11.0348C22.9115 11.0348 23.2434 11.0449 24.3493 11.095C25.3719 11.1416 25.9269 11.312 26.2967 11.4551C26.7861 11.6446 27.1351 11.8712 27.502 12.2372C27.8691 12.6032 28.0964 12.9518 28.2869 13.4398C28.4305 13.808 28.6016 14.3614 28.6481 15.381C28.6984 16.4834 28.7093 16.8145 28.7093 19.6053C28.7093 22.3962 28.6984 22.7273 28.6481 23.8297C28.6013 24.8493 28.4305 25.4027 28.2869 25.7709C28.0968 26.2589 27.8691 26.6064 27.502 26.9722C27.1349 27.3382 26.7864 27.5647 26.2967 27.7543C25.9274 27.8981 25.3719 28.068 24.3493 28.1146C23.2436 28.1647 22.9115 28.1756 20.111 28.1756C17.3103 28.1756 16.9784 28.1647 15.8727 28.1146C14.85 28.0676 14.295 27.8972 13.9251 27.7541C13.4356 27.5645 13.086 27.338 12.7189 26.9719C12.3518 26.6059 12.1245 26.2582 11.934 25.77C11.7904 25.4018 11.6193 24.8484 11.5728 23.8288C11.5225 22.7264 11.5125 22.3953 11.5125 19.6027C11.5125 16.8102 11.5225 16.4808 11.5728 15.3784C11.6195 14.3588 11.7904 13.8054 11.934 13.4368C12.1241 12.9488 12.3518 12.6002 12.7189 12.2342C13.086 11.8682 13.4356 11.6416 13.9251 11.4516C14.2948 11.3078 14.85 11.1379 15.8727 11.091C16.8403 11.0475 17.2152 11.0344 19.1701 11.0322V11.0348ZM25.7099 12.7719C25.0151 12.7719 24.4513 13.3337 24.4513 14.0271C24.4513 14.7203 25.0151 15.2828 25.7099 15.2828C26.4048 15.2828 26.9686 14.7203 26.9686 14.0271C26.9686 13.3339 26.4048 12.7715 25.7099 12.7715V12.7719ZM14.7246 19.6082C14.7246 16.6425 17.1362 14.2379 20.1107 14.2378C23.0854 14.2378 25.4965 16.6424 25.4965 19.6082C25.4965 22.5741 23.0856 24.9776 20.111 24.9776C17.1363 24.9776 14.7246 22.5741 14.7246 19.6082Z" fill="#231F20"/>
<path id="Shape" fill-rule="evenodd" clip-rule="evenodd" d="M20.1108 16.1216C22.0416 16.1216 23.6071 17.6823 23.6071 19.6078C23.6071 21.533 22.0416 23.0939 20.1108 23.0939C18.1798 23.0939 16.6146 21.533 16.6146 19.6078C16.6146 17.6823 18.1798 16.1216 20.1108 16.1216V16.1216Z" fill="#231F20"/>
</g>
</svg>
