<svg width="40" height="40" viewBox="0 0 40 40" fill="none" xmlns="http://www.w3.org/2000/svg">
<g id="VK">
<path id="Combined Shape" fill-rule="evenodd" clip-rule="evenodd" d="M20 0.58351C5.0457 3.98115 0 9.27654 0 19.9999C0 30.7233 6 42.8145 20 39.4164C34 36.0182 40 30.7233 40 19.9999C40 9.27654 34.9543 -2.81413 20 0.58351ZM21.6285 26.1298C21.4313 26.3316 21.0463 26.3724 21.0463 26.3724H19.7712C19.7712 26.3724 16.9582 26.5335 14.4801 24.0755C11.7776 21.3938 9.39132 16.0731 9.39132 16.0731C9.39132 16.0731 9.25359 15.7241 9.4028 15.5561C9.57079 15.3662 10.0288 15.3542 10.0288 15.3542L13.0767 15.3353C13.0767 15.3353 13.3636 15.3801 13.5692 15.5243C13.7392 15.6436 13.8342 15.8653 13.8342 15.8653C13.8342 15.8653 14.3267 17.0525 14.9788 18.1264C16.2528 20.2235 16.8455 20.6818 17.2775 20.4571C17.9077 20.13 17.7188 17.493 17.7188 17.493C17.7188 17.493 17.7303 16.5365 17.4016 16.1099C17.147 15.7798 16.6671 15.6833 16.4552 15.6565C16.2831 15.6346 16.5648 15.2548 16.93 15.0848C17.4788 14.8292 18.4471 14.8143 19.5917 14.8252C20.4839 14.8342 20.7405 14.8869 21.089 14.9674C21.8979 15.1534 21.8726 15.7495 21.8181 17.036C21.8018 17.4207 21.7829 17.8672 21.7829 18.3829C21.7829 18.4988 21.7794 18.6224 21.7757 18.7495C21.7568 19.4086 21.7352 20.1633 22.1909 20.4442C22.4246 20.5874 22.9954 20.4651 24.4238 18.1543C25.101 17.0585 25.6081 15.7708 25.6081 15.7708C25.6081 15.7708 25.7197 15.5412 25.8919 15.4427C26.0682 15.3423 26.3061 15.3731 26.3061 15.3731L29.5136 15.3542C29.5136 15.3542 30.4777 15.2439 30.6332 15.6595C30.797 16.094 30.2732 17.1102 28.9627 18.7747C27.7214 20.3516 27.1164 20.9338 27.1698 21.4474C27.209 21.8242 27.6023 22.1641 28.3585 22.8326C29.9339 24.2264 30.3561 24.9597 30.4576 25.1359C30.466 25.1505 30.4722 25.1612 30.4766 25.1683C31.183 26.2849 29.693 26.3724 29.693 26.3724L26.8435 26.4102C26.8435 26.4102 26.232 26.5255 25.4265 25.9985C25.0046 25.7227 24.5922 25.2722 24.1995 24.8431C23.5997 24.1878 23.0457 23.5825 22.5728 23.7255C21.7787 23.9661 21.8027 25.5958 21.8027 25.5958C21.8027 25.5958 21.809 25.9448 21.6285 26.1298Z" fill="#231F20"/>
</g>
</svg>
