<svg width="21" height="21" viewBox="0 0 21 21" fill="none" xmlns="http://www.w3.org/2000/svg">
<path fill-rule="evenodd" clip-rule="evenodd" d="M5.62419 18.7406L5.26325 18.5263L1.52209 19.5077L2.52066 15.8601L2.28564 15.4861C1.29617 13.9124 0.773573 12.0934 0.774339 10.2257C0.776502 4.77569 5.21079 0.341797 10.6631 0.341797C13.3033 0.342712 15.7852 1.37218 17.6514 3.24059C19.5177 5.109 20.5448 7.59244 20.5438 10.2337C20.5416 15.684 16.1074 20.1184 10.6593 20.1184H10.6552C8.88152 20.1177 7.14184 19.6412 5.62419 18.7406ZM16.2438 12.7948C16.451 12.895 16.591 12.9626 16.6507 13.0624C16.725 13.1863 16.725 13.7813 16.4775 14.4755C16.2298 15.1696 15.0426 15.8031 14.4717 15.8884C13.9597 15.9649 13.3119 15.9969 12.6 15.7706C12.1684 15.6337 11.615 15.4509 10.906 15.1447C8.12022 13.9418 6.2376 11.2418 5.88179 10.7315C5.85686 10.6957 5.83943 10.6707 5.8297 10.6577L5.82731 10.6545C5.67004 10.4447 4.61634 9.03881 4.61634 7.58377C4.61634 6.21499 5.2887 5.49755 5.5982 5.1673C5.6194 5.14468 5.6389 5.12387 5.65636 5.10479C5.92874 4.8073 6.25069 4.73292 6.44878 4.73292C6.64686 4.73292 6.84517 4.73475 7.01831 4.74345C7.03967 4.74452 7.06189 4.74439 7.08486 4.74425C7.25803 4.74324 7.47392 4.74197 7.68689 5.25354C7.76883 5.45042 7.88872 5.7423 8.01516 6.05014C8.27086 6.67264 8.55337 7.36043 8.60308 7.45996C8.67738 7.60871 8.72689 7.78218 8.62785 7.98059C8.61298 8.01033 8.59923 8.03841 8.58609 8.06523C8.5117 8.21712 8.45697 8.32884 8.3307 8.47627C8.28105 8.53424 8.22974 8.59674 8.17842 8.65923C8.07619 8.78373 7.97397 8.90822 7.88496 8.99689C7.7362 9.14507 7.58134 9.30584 7.75468 9.60334C7.92802 9.90084 8.52439 10.8739 9.40778 11.6619C10.3574 12.5089 11.1827 12.8669 11.6011 13.0483C11.6827 13.0838 11.7489 13.1125 11.7975 13.1368C12.0945 13.2856 12.2679 13.2607 12.4412 13.0624C12.6146 12.8641 13.184 12.1947 13.3821 11.8972C13.5802 11.5998 13.7784 11.6494 14.0507 11.7485C14.3231 11.8478 15.7841 12.5666 16.0812 12.7153C16.1392 12.7443 16.1935 12.7705 16.2438 12.7948Z" fill="white"/>
</svg>
