<svg width="40" height="40" viewBox="0 0 40 40" fill="none" xmlns="http://www.w3.org/2000/svg">
<path fill-rule="evenodd" clip-rule="evenodd" d="M20 40C31.0457 40 40 31.0457 40 20C40 8.95431 31.0457 0 20 0C8.95431 0 0 8.95431 0 20C0 31.0457 8.95431 40 20 40ZM20.2787 18.8775C18.7163 18.8775 10.6667 14.3128 10.6667 14.3128V13.6C10.6667 12.7168 11.3835 12 12.2683 12H28.2891C29.1747 12 29.8915 12.7168 29.8915 13.6L29.8787 14.4C29.8787 14.4 21.9163 18.8775 20.2787 18.8775ZM29.8787 16.8001C29.8787 16.8001 21.9915 21.0777 20.2787 21.0777C18.7163 21.0777 10.6787 16.8001 10.6795 16.8001L10.6667 26.4001C10.6667 27.2833 11.3843 28.0001 12.2683 28.0001H28.2891C29.1747 28.0001 29.8915 27.2833 29.8915 26.4001L29.8787 16.8001Z" fill="#FFFFFF"/>
</svg>
