<svg width="136" height="56" viewBox="0 0 136 56" fill="none" xmlns="http://www.w3.org/2000/svg">
<path d="M7.18045 9.90757L5.01934 10.2678L7.47673 19.0946L7.87758 21.2399H7.98215L8.47014 19.0946L12.2346 7.8278H14.9883L18.7703 19.0946L19.3105 21.4855H19.4151L19.9205 19.0946L22.2385 10.2678L20.0425 9.90757V7.8278H27.223V9.90757L25.5847 10.1368L20.8268 25.5468H18.0557L14.3958 14.7549L13.6115 11.7745L13.5069 11.7908L12.7749 14.7549L9.1847 25.5468H6.41361L1.65569 10.1368L0 9.90757V7.8278H7.18045V9.90757Z" fill="#231F20"/>
<path d="M27.156 23.4834L29.9969 23.0249V10.3661L27.156 9.90757V7.8278H33.4302V23.0249L36.271 23.4834V25.5468H27.156V23.4834ZM33.4302 3.29161H29.9969V0H33.4302V3.29161Z" fill="#231F20"/>
<path d="M35.5418 23.4834L38.3826 23.0249V10.3661L35.5418 9.90757V7.8278H41.45L41.694 10.4644C42.3214 9.52546 43.1057 8.79945 44.0468 8.28633C44.9996 7.7623 46.0801 7.50028 47.2885 7.50028C49.3218 7.50028 50.8961 8.06253 52.0116 9.18702C53.127 10.3006 53.6847 12.0256 53.6847 14.3619V23.0249V23.4834V25.5468H50.2513V23.4834V23.0249V14.4274C50.2513 12.8662 49.9202 11.7581 49.2579 11.103C48.6072 10.448 47.608 10.1205 46.2602 10.1205C45.2726 10.1205 44.3954 10.3443 43.6286 10.7919C42.8733 11.2395 42.2691 11.8509 41.816 12.626V23.0249L44.6568 23.4834V25.5468H35.5418V23.4834Z" fill="#231F20"/>
<path d="M64.5976 25.8907C61.9717 25.8907 59.8803 25.0719 58.3234 23.4343C56.7781 21.7857 56.0054 19.6514 56.0054 17.0312V16.3106C56.0054 13.7887 56.8013 11.6926 58.3931 10.0222C59.9965 8.34092 61.8904 7.50028 64.0747 7.50028C66.6076 7.50028 68.5247 8.22083 69.826 9.66193C71.139 11.103 71.7954 13.0245 71.7954 15.4263V17.4406H59.5608L59.5085 17.5225C59.5434 19.2256 60.0023 20.6285 60.8853 21.7312C61.7684 22.8229 63.0058 23.3688 64.5976 23.3688C65.7594 23.3688 66.7761 23.2159 67.6475 22.9102C68.5305 22.5936 69.2916 22.1624 69.9306 21.6165L71.2726 23.7127C70.5987 24.324 69.704 24.8426 68.5886 25.2684C67.4848 25.6833 66.1545 25.8907 64.5976 25.8907ZM64.0747 10.0386C62.9244 10.0386 61.9426 10.4971 61.1293 11.4142C60.316 12.3203 59.8164 13.4612 59.6305 14.8368L59.6654 14.9187H68.3621V14.4929C68.3621 13.2265 68.0019 12.1675 67.2815 11.3159C66.5611 10.4644 65.4922 10.0386 64.0747 10.0386Z" fill="#231F20"/>
<path d="M121.303 1.62061C113.754 1.62061 113.08 4.42959 108.004 4.3965C102.927 4.42959 102.263 1.62061 94.7042 1.62061C89.761 1.62061 84.4468 2.61909 80.0098 3.77095V8.16787C80.7749 8.99794 82.3403 9.51221 82.3449 12.4325C82.3589 23.9421 86.0494 25.6263 93.0829 25.6804C102.531 25.6804 103.807 22.8925 105.384 13.2054C105.734 11.055 106.581 9.75281 108.001 9.75281C109.422 9.75281 110.269 11.0581 110.619 13.2054C112.2 22.8925 113.476 25.6804 122.924 25.6804C129.96 25.6263 133.651 23.9421 133.665 12.4325C133.669 9.51221 135.235 8.99794 136 8.16787V3.77095C131.561 2.61909 126.246 1.62061 121.303 1.62061ZM103.119 12.3994C101.812 20.4053 101.514 22.7511 93.0946 22.6729C86.4717 22.6218 84.6754 20.9587 84.6754 12.3693C84.6754 7.80999 84.6754 4.62808 94.7042 4.62808C99.1949 4.62808 101.95 5.95437 102.895 7.71976C103.396 8.6611 103.473 10.234 103.119 12.3994ZM122.913 22.6729C114.496 22.7511 114.197 20.4053 112.889 12.3994C112.536 10.234 112.611 8.65809 113.115 7.71976C114.057 5.95437 116.812 4.62808 121.303 4.62808C131.332 4.62808 131.332 7.80999 131.332 12.3693C131.332 20.9587 129.536 22.6218 122.913 22.6729Z" fill="#FA7268"/>
<path d="M12.3674 49.0834C12.26 48.6031 12.1764 48.1718 12.1168 47.7897C12.0571 47.4076 12.0154 47.0255 11.9915 46.6434C11.3114 47.4404 10.4583 48.1063 9.43213 48.6413C8.41792 49.1653 7.33212 49.4273 6.17473 49.4273C4.15825 49.4273 2.62501 48.9797 1.575 48.0845C0.525001 47.1783 0 45.9065 0 44.2688C0 42.5875 0.739775 41.2938 2.21932 40.3877C3.7108 39.4706 5.75115 39.0121 8.34036 39.0121H11.9736V36.9487C11.9736 35.9115 11.6157 35.0927 10.8997 34.4923C10.1838 33.8809 9.18752 33.5752 7.91081 33.5752C7.02786 33.5752 6.24632 33.6789 5.56621 33.8864C4.89802 34.0938 4.35512 34.3776 3.93751 34.7379L3.56166 36.6048H0.841195V33.1658C1.72415 32.5217 2.79205 32.0086 4.0449 31.6264C5.29774 31.2334 6.65797 31.0369 8.12559 31.0369C10.321 31.0369 12.0989 31.55 13.4591 32.5763C14.8194 33.6025 15.4995 35.0709 15.4995 36.9814V45.5134C15.4995 45.7427 15.4995 45.9665 15.4995 46.1848C15.5114 46.4032 15.5293 46.6215 15.5532 46.8399L16.985 47.02V49.0834H12.3674ZM6.69377 46.7253C7.86309 46.7253 8.93099 46.4687 9.89747 45.9556C10.8639 45.4425 11.556 44.8256 11.9736 44.1051V41.1901H8.21508C6.77132 41.1901 5.62587 41.4958 4.7787 42.1072C3.94348 42.7186 3.52586 43.4609 3.52586 44.3343C3.52586 45.1095 3.78836 45.7045 4.31336 46.1193C4.83836 46.5233 5.63183 46.7253 6.69377 46.7253Z" fill="#231F20"/>
<path d="M16.4688 47.02L19.3862 46.5615V33.9027L16.4688 33.4442V31.3644H22.5362L22.7867 34.001C23.431 33.0621 24.2364 32.3361 25.2029 31.823C26.1813 31.2989 27.291 31.0369 28.5319 31.0369C30.62 31.0369 32.2368 31.5992 33.3822 32.7236C34.5277 33.8372 35.1004 35.5622 35.1004 37.8985V46.5615L38.0177 47.02V49.0834H28.6572V47.02L31.5745 46.5615V37.964C31.5745 36.4028 31.2345 35.2947 30.5544 34.6397C29.8862 33.9846 28.86 33.6571 27.4759 33.6571C26.4617 33.6571 25.5609 33.8809 24.7734 34.3285C23.9978 34.7761 23.3774 35.3875 22.912 36.1626V46.5615L25.8293 47.02V49.0834H16.4688V47.02Z" fill="#231F20"/>
<path d="M50.5132 46.9709C49.8808 47.7788 49.1053 48.3902 48.1865 48.805C47.2797 49.2199 46.2237 49.4273 45.0186 49.4273C42.6561 49.4273 40.8067 48.6467 39.4703 47.0855C38.1459 45.5134 37.4837 43.45 37.4837 40.8953V40.5514C37.4837 37.702 38.1459 35.4039 39.4703 33.6571C40.8067 31.9103 42.668 31.0369 45.0544 31.0369C46.1999 31.0369 47.2081 31.2334 48.0791 31.6264C48.9621 32.0086 49.7138 32.5653 50.3343 33.2968V26.0749L50.2341 25.6164V23.5366H53.7272V46.5615L56.7775 47.02V49.0834H50.7996L50.5132 46.9709ZM41.0095 40.8953C41.0095 42.6749 41.4092 44.1051 42.2087 45.1859C43.0081 46.2667 44.243 46.8071 45.9135 46.8071C46.9635 46.8071 47.8465 46.5888 48.5624 46.1521C49.2783 45.7154 49.8689 45.0986 50.3343 44.3016V36.0808C49.8808 35.3384 49.2902 34.7488 48.5624 34.3121C47.8345 33.8754 46.9635 33.6571 45.9493 33.6571C44.2669 33.6571 43.02 34.2958 42.2087 35.5731C41.4092 36.8504 41.0095 38.5099 41.0095 40.5514V40.8953Z" fill="#231F20"/>
<path d="M56.7776 53.834L59.6234 53.3564V33.0941L56.7776 32.6166V30.4505H62.574L62.8882 32.7019C63.5168 31.8604 64.2791 31.218 65.1754 30.7746C66.0832 30.3311 67.1308 30.1094 68.318 30.1094C70.6575 30.1094 72.4732 31.019 73.7652 32.8383C75.0688 34.6462 75.7206 37.0397 75.7206 40.0188V40.377C75.7206 43.0377 75.0688 45.1867 73.7652 46.8241C72.4616 48.45 70.6633 49.263 68.3703 49.263C67.2064 49.263 66.1822 49.0754 65.2976 48.7002C64.4246 48.3136 63.6797 47.7451 63.0628 46.9946V53.3564L65.9086 53.834V56.0001H56.7776V53.834ZM72.2637 40.0188C72.2637 37.9152 71.8447 36.1926 71.0067 34.8509C70.1686 33.5092 68.9232 32.8383 67.2704 32.8383C66.2927 32.8383 65.4547 33.0543 64.7563 33.4864C64.058 33.9185 63.4935 34.5098 63.0628 35.2602V44.2486C63.4935 45.0105 64.0522 45.6017 64.7389 46.0224C65.4372 46.4318 66.2927 46.6364 67.3053 46.6364C68.9349 46.6364 70.1686 46.0565 71.0067 44.8968C71.8447 43.737 72.2637 42.2304 72.2637 40.377V40.0188Z" fill="#FA7268"/>
<path d="M75.9853 32.6166V30.4505H81.9038L82.2356 33.1283C82.771 32.1845 83.4286 31.4454 84.2084 30.911C84.9999 30.3766 85.9019 30.1094 86.9146 30.1094C87.1823 30.1094 87.4558 30.1321 87.7351 30.1776C88.0261 30.2117 88.2473 30.2515 88.3986 30.297L87.9446 33.4182L85.9892 33.3159C85.0814 33.3159 84.319 33.5262 83.7021 33.9469C83.0852 34.3563 82.608 34.9362 82.2705 35.6866V46.2783L85.1163 46.7558V48.9049H75.9853V46.7558L78.8311 46.2783V33.0941L75.9853 32.6166Z" fill="#FA7268"/>
<path d="M87.5983 39.5071C87.5983 36.7782 88.3548 34.5325 89.8679 32.7701C91.381 30.9963 93.4354 30.1094 96.0309 30.1094C98.6382 30.1094 100.698 30.9906 102.211 32.753C103.736 34.5155 104.499 36.7668 104.499 39.5071V39.8823C104.499 42.634 103.742 44.8854 102.229 46.6364C100.716 48.3875 98.6614 49.263 96.0659 49.263C93.447 49.263 91.381 48.3875 89.8679 46.6364C88.3548 44.874 87.5983 42.6226 87.5983 39.8823V39.5071ZM91.0377 39.8823C91.0377 41.8381 91.4567 43.4527 92.2947 44.7262C93.1444 45.9997 94.4014 46.6364 96.0659 46.6364C97.6954 46.6364 98.935 45.9997 99.7846 44.7262C100.634 43.4527 101.059 41.8381 101.059 39.8823V39.5071C101.059 37.5741 100.634 35.9652 99.7846 34.6803C98.935 33.3955 97.6837 32.753 96.0309 32.753C94.3782 32.753 93.1328 33.3955 92.2947 34.6803C91.4567 35.9652 91.0377 37.5741 91.0377 39.5071V39.8823Z" fill="#FA7268"/>
<path d="M119.254 36.2495H116.67L116.112 34.0322C115.693 33.6456 115.163 33.3386 114.523 33.1112C113.894 32.8724 113.178 32.753 112.375 32.753C111.153 32.753 110.245 33.0145 109.652 33.5376C109.058 34.0606 108.761 34.6917 108.761 35.4308C108.761 36.1585 109.023 36.7327 109.547 37.1534C110.071 37.5741 111.136 37.9494 112.742 38.2791C115.128 38.7794 116.903 39.4616 118.067 40.3258C119.231 41.1786 119.813 42.327 119.813 43.7711C119.813 45.4084 119.132 46.7331 117.77 47.7451C116.42 48.757 114.651 49.263 112.463 49.263C111.031 49.263 109.745 49.1039 108.604 48.7855C107.464 48.4557 106.445 47.9839 105.549 47.3698L105.531 43.1571H108.115L108.761 45.6302C109.157 45.9826 109.692 46.2385 110.368 46.3977C111.054 46.5569 111.753 46.6364 112.463 46.6364C113.685 46.6364 114.639 46.3977 115.326 45.9201C116.024 45.4312 116.373 44.7944 116.373 44.0099C116.373 43.2708 116.082 42.6624 115.5 42.1849C114.93 41.7073 113.842 41.2923 112.236 40.9398C109.943 40.4509 108.214 39.7857 107.05 38.9443C105.886 38.1029 105.304 36.9658 105.304 35.5331C105.304 34.0322 105.956 32.753 107.26 31.6956C108.575 30.6381 110.28 30.1094 112.375 30.1094C113.807 30.1094 115.093 30.2913 116.234 30.6552C117.374 31.019 118.323 31.525 119.08 32.1731L119.254 36.2495Z" fill="#FA7268"/>
<path d="M128.79 49.263C126.159 49.263 124.064 48.4102 122.504 46.7047C120.956 44.9877 120.182 42.7648 120.182 40.0359V39.2854C120.182 36.6588 120.98 34.4757 122.574 32.736C124.18 30.9849 126.078 30.1094 128.266 30.1094C130.803 30.1094 132.724 30.8598 134.027 32.3607C135.343 33.8617 136 35.8629 136 38.3644V40.4622H123.744L123.692 40.5475C123.726 42.3213 124.186 43.7824 125.071 44.9309C125.955 46.0679 127.195 46.6364 128.79 46.6364C129.953 46.6364 130.972 46.4773 131.845 46.1589C132.729 45.8291 133.492 45.38 134.132 44.8115L135.476 46.9946C134.801 47.6314 133.905 48.1715 132.788 48.6149C131.682 49.047 130.349 49.263 128.79 49.263ZM128.266 32.753C127.114 32.753 126.13 33.2306 125.315 34.1857C124.5 35.1295 124 36.3177 123.814 37.7504L123.849 37.8357H132.561V37.3922C132.561 36.0732 132.2 34.9703 131.478 34.0834C130.757 33.1965 129.686 32.753 128.266 32.753Z" fill="#FA7268"/>
</svg>
