<svg width="402" height="276" viewBox="0 0 402 276" fill="none" xmlns="http://www.w3.org/2000/svg">
<path d="M43.448 72.936L18.384 18.44H19.424L15.888 53.696C15.472 57.3707 15.4027 60.2133 15.68 62.224C16.0267 64.1653 16.7547 65.552 17.864 66.384C19.0427 67.216 20.6373 67.7013 22.648 67.84C22.856 68.5333 22.9947 69.3307 23.064 70.232C23.1333 71.1333 23.168 71.8267 23.168 72.312C21.504 72.2427 19.5973 72.1733 17.448 72.104C15.368 72.0347 13.5653 72 12.04 72C11 72 9.856 72 8.608 72C7.36 72.0693 6.112 72.104 4.864 72.104C3.616 72.1733 2.54133 72.2427 1.64 72.312C1.64 71.8267 1.67467 71.1333 1.744 70.232C1.81333 69.3307 1.952 68.5333 2.16 67.84C3.96267 67.7013 5.41867 67.2507 6.528 66.488C7.63733 65.7253 8.504 64.304 9.128 62.224C9.752 60.144 10.2373 56.9893 10.584 52.76L13.912 15.736C14.12 13.3093 14.016 11.368 13.6 9.912C13.2533 8.456 12.5253 7.416 11.416 6.792C10.376 6.168 8.88533 5.856 6.944 5.856C6.736 5.16266 6.59733 4.4 6.528 3.56799C6.45867 2.736 6.424 2.008 6.424 1.384C7.11733 1.45333 7.91467 1.52266 8.816 1.592C9.71733 1.592 10.6187 1.62666 11.52 1.69599C12.4907 1.69599 13.4267 1.69599 14.328 1.69599C15.2293 1.69599 16.096 1.69599 16.928 1.69599C17.8293 1.62666 18.696 1.592 19.528 1.592C20.4293 1.52266 21.3307 1.45333 22.232 1.384L49.48 61.6H47.192L70.904 1.384C71.6667 1.45333 72.4987 1.52266 73.4 1.592C74.3707 1.592 75.3067 1.62666 76.208 1.69599C77.1787 1.69599 78.1147 1.69599 79.016 1.69599C79.9173 1.69599 80.784 1.69599 81.616 1.69599C82.5173 1.62666 83.384 1.592 84.216 1.592C85.1173 1.52266 86.0187 1.45333 86.92 1.384C86.92 2.14666 86.8853 2.90933 86.816 3.672C86.7467 4.36533 86.608 5.09333 86.4 5.856C83.9733 5.856 82.0667 6.584 80.68 8.04C79.3627 9.42666 78.912 12.2 79.328 16.36L83.072 54.528C83.4187 57.9947 83.8693 60.664 84.424 62.536C84.9787 64.3387 85.7413 65.6213 86.712 66.384C87.752 67.1467 89.0693 67.5973 90.664 67.736C90.872 68.4987 91.0107 69.296 91.08 70.128C91.1493 70.8907 91.184 71.6187 91.184 72.312C90.352 72.2427 89.416 72.1733 88.376 72.104C87.336 72.104 86.2267 72.0693 85.048 72C83.9387 72 82.8293 72 81.72 72C80.68 72 79.6747 72 78.704 72C77.456 72 76.0693 72 74.544 72C73.0187 72.0693 71.4933 72.104 69.968 72.104C68.512 72.1733 67.1947 72.2427 66.016 72.312C66.016 71.688 66.0507 70.96 66.12 70.128C66.2587 69.296 66.432 68.5333 66.64 67.84C68.8587 67.632 70.4533 67.1813 71.424 66.488C72.464 65.7947 73.0533 64.616 73.192 62.952C73.4 61.288 73.3307 58.9307 72.984 55.88L69.032 18.024H70.176L47.712 72.208C47.088 72.4853 46.4293 72.6587 45.736 72.728C45.0427 72.8667 44.28 72.936 43.448 72.936ZM104.773 1.384C105.813 1.45333 107.096 1.52266 108.621 1.592C110.216 1.592 111.88 1.62666 113.613 1.69599C115.346 1.69599 116.976 1.69599 118.501 1.69599C120.026 1.69599 121.274 1.69599 122.245 1.69599V57.648C122.245 60.2133 122.488 62.1893 122.973 63.576C123.458 64.9627 124.394 65.9333 125.781 66.488C127.168 67.0427 129.144 67.32 131.709 67.32V72C129.768 72 127.514 72 124.949 72C122.453 72 119.888 72 117.253 72C114.688 72.0693 112.296 72.104 110.077 72.104C107.858 72.1733 106.09 72.2427 104.773 72.312C104.773 71.4107 104.808 70.5787 104.877 69.816C104.946 69.0533 105.085 68.3947 105.293 67.84C107.165 67.7013 108.621 67.3547 109.661 66.8C110.701 66.2453 111.429 65.2747 111.845 63.888C112.261 62.432 112.469 60.352 112.469 57.648V14.904C112.469 12.616 112.261 10.848 111.845 9.6C111.429 8.28266 110.701 7.38133 109.661 6.896C108.621 6.34133 107.165 5.99467 105.293 5.856C105.085 5.30133 104.946 4.64266 104.877 3.88C104.808 3.048 104.773 2.216 104.773 1.384ZM152.613 54.216C153.653 54.5627 154.52 54.9093 155.213 55.256C155.906 55.6027 156.565 56.088 157.189 56.712C156.426 59.1387 155.768 61.7387 155.213 64.512C154.728 67.2853 154.312 69.8507 153.965 72.208C152.648 72.208 150.845 72.1733 148.557 72.104C146.338 72.104 143.773 72.0693 140.861 72C138.018 72 134.968 72 131.709 72V67.32H132.333C137.256 67.32 141 66.8347 143.565 65.864C146.13 64.824 148.037 63.3333 149.285 61.392C150.533 59.4507 151.642 57.0587 152.613 54.216ZM145.333 25.2C145.194 27.0027 145.125 28.9093 145.125 30.92C145.125 32.8613 145.125 34.7333 145.125 36.536C145.125 38.3387 145.125 40.384 145.125 42.672C145.125 44.8907 145.194 46.8667 145.333 48.6C144.362 48.6 143.496 48.5653 142.733 48.496C142.04 48.4267 141.312 48.288 140.549 48.08C140.272 44.4747 139.301 42.048 137.637 40.8C135.973 39.4827 133.026 38.824 128.797 38.824H121.309V34.352H128.797C133.026 34.352 135.973 33.7973 137.637 32.688C139.37 31.5787 140.272 29.3253 140.341 25.928C141.242 25.6507 142.04 25.4773 142.733 25.408C143.496 25.2693 144.362 25.2 145.333 25.2ZM151.469 1.384C151.608 2.97866 151.781 4.78133 151.989 6.792C152.197 8.73333 152.44 10.7093 152.717 12.72C152.994 14.6613 153.306 16.36 153.653 17.816C153.098 18.3013 152.405 18.648 151.573 18.856C150.741 18.9947 149.874 19.064 148.973 19.064C148.765 16.9147 148.176 14.8347 147.205 12.824C146.304 10.8133 144.64 9.14933 142.213 7.832C139.856 6.51466 136.424 5.856 131.917 5.856H120.061L122.245 1.69599C127.653 1.69599 132.333 1.69599 136.285 1.69599C140.237 1.62666 143.461 1.592 145.957 1.592C148.453 1.52266 150.29 1.45333 151.469 1.384ZM227.346 72.624L178.674 9.08C177.703 7.832 176.767 7.03466 175.866 6.688C174.965 6.272 173.647 5.99467 171.914 5.856C171.706 5.16266 171.567 4.4 171.498 3.56799C171.429 2.66666 171.394 1.93867 171.394 1.384C172.087 1.45333 172.85 1.52266 173.682 1.592C174.583 1.592 175.485 1.62666 176.386 1.69599C177.357 1.69599 178.258 1.69599 179.09 1.69599C180.407 1.69599 181.655 1.66133 182.834 1.592C184.082 1.52266 185.157 1.45333 186.058 1.384L227.554 56.4L227.346 72.624ZM171.394 72.312C171.394 71.4107 171.429 70.6133 171.498 69.92C171.567 69.1573 171.706 68.464 171.914 67.84C173.786 67.84 175.242 67.3893 176.282 66.488C177.322 65.5867 178.05 64.0267 178.466 61.808C178.882 59.5893 179.09 56.504 179.09 52.552V8.56H184.394V52.552C184.394 56.504 184.602 59.5893 185.018 61.808C185.434 64.0267 186.162 65.5867 187.202 66.488C188.242 67.3893 189.698 67.84 191.57 67.84C191.778 68.464 191.917 69.1227 191.986 69.816C192.055 70.5093 192.09 71.3413 192.09 72.312C191.05 72.2427 189.906 72.1733 188.658 72.104C187.479 72.104 186.266 72.0693 185.018 72C183.839 72 182.765 72 181.794 72C180.823 72 179.679 72 178.362 72C177.045 72.0693 175.762 72.104 174.514 72.104C173.266 72.1733 172.226 72.2427 171.394 72.312ZM227.346 72.624L226.514 62.224V20.624C226.514 16.88 226.306 13.9333 225.89 11.784C225.474 9.63466 224.746 8.10933 223.706 7.208C222.666 6.30666 221.21 5.856 219.338 5.856C219.13 4.67733 218.991 3.81066 218.922 3.256C218.853 2.632 218.818 2.008 218.818 1.384C219.789 1.45333 220.829 1.52266 221.938 1.592C223.117 1.592 224.261 1.62666 225.37 1.69599C226.549 1.69599 227.623 1.69599 228.594 1.69599C230.05 1.69599 231.714 1.66133 233.586 1.592C235.458 1.52266 237.087 1.45333 238.474 1.384C238.474 2.07733 238.439 2.84 238.37 3.672C238.301 4.43466 238.162 5.16266 237.954 5.856C236.429 5.856 235.215 6.30666 234.314 7.208C233.413 8.10933 232.754 9.63466 232.338 11.784C231.991 13.9333 231.818 16.88 231.818 20.624V72C231.263 72.208 230.535 72.3467 229.634 72.416C228.802 72.5547 228.039 72.624 227.346 72.624ZM275.101 72.936C270.803 72.936 267.024 72.3467 263.765 71.168C260.576 69.92 257.317 68.2907 253.989 66.28C254.405 63.7147 254.648 61.1147 254.717 58.48C254.856 55.776 254.925 53.4533 254.925 51.512C255.688 51.304 256.589 51.1653 257.629 51.096C258.669 50.9573 259.64 50.888 260.541 50.888C260.749 54.424 261.373 57.4747 262.413 60.04C263.523 62.6053 265.221 64.5813 267.509 65.968C269.867 67.2853 272.883 67.944 276.557 67.944C281.341 67.944 284.739 66.904 286.749 64.824C288.829 62.6747 289.869 60.1093 289.869 57.128C289.869 54.0773 289.037 51.5813 287.373 49.64C285.709 47.6293 283.56 45.9307 280.925 44.544C278.291 43.1573 275.483 41.8053 272.501 40.488C269.589 39.1707 266.816 37.6453 264.181 35.912C261.547 34.1787 259.397 32.0293 257.733 29.464C256.069 26.8293 255.237 23.5013 255.237 19.48C255.237 15.5973 256.069 12.2693 257.733 9.496C259.467 6.65333 261.893 4.504 265.013 3.048C268.133 1.52266 271.843 0.759994 276.141 0.759994C278.568 0.759994 280.856 0.967995 283.005 1.384C285.224 1.8 287.2 2.38933 288.933 3.15199C290.736 3.84533 292.261 4.57333 293.509 5.336C293.509 7.34666 293.544 9.66933 293.613 12.304C293.683 14.9387 293.856 17.192 294.133 19.064C293.371 19.4107 292.435 19.6533 291.325 19.792C290.285 19.9307 289.28 20 288.309 20C287.616 15.9787 286.715 12.928 285.605 10.848C284.496 8.768 283.144 7.34666 281.549 6.584C279.955 5.752 278.117 5.336 276.037 5.336C272.363 5.336 269.485 6.23733 267.405 8.04C265.325 9.84266 264.285 12.3733 264.285 15.632C264.285 18.6827 265.117 21.2133 266.781 23.224C268.445 25.2347 270.595 26.968 273.229 28.424C275.864 29.88 278.637 31.3013 281.549 32.688C284.461 34.0053 287.235 35.5307 289.869 37.264C292.504 38.928 294.653 41.008 296.317 43.504C297.981 46 298.813 49.1547 298.813 52.968C298.813 56.4347 297.981 59.6933 296.317 62.744C294.653 65.7947 292.053 68.256 288.517 70.128C285.051 72 280.579 72.936 275.101 72.936ZM35.232 102.072L59.984 158.856C61.0933 161.491 62.0293 163.501 62.792 164.888C63.624 166.205 64.4213 167.176 65.184 167.8C66.016 168.355 66.952 168.701 67.992 168.84C68.2693 169.741 68.4427 170.504 68.512 171.128C68.5813 171.752 68.616 172.48 68.616 173.312C67.9227 173.243 66.848 173.173 65.392 173.104C63.936 173.104 62.4107 173.069 60.816 173C59.2213 173 57.8693 173 56.76 173C55.928 173 54.9573 173 53.848 173C52.7387 173.069 51.5947 173.104 50.416 173.104C49.2373 173.173 48.1627 173.208 47.192 173.208C46.2907 173.277 45.5627 173.312 45.008 173.312C45.008 172.48 45.0427 171.683 45.112 170.92C45.1813 170.157 45.3893 169.464 45.736 168.84C48.5787 168.563 50.2427 167.939 50.728 166.968C51.2133 165.997 50.7973 163.917 49.48 160.728L35.024 126.928C34.0533 124.779 33.2213 122.872 32.528 121.208C31.8347 119.544 31.0373 117.429 30.136 114.864H30.656C29.824 117.499 29.0613 119.752 28.368 121.624C27.744 123.427 27.12 125.16 26.496 126.824L14.64 157.712C13.1147 161.803 12.6293 164.645 13.184 166.24C13.808 167.765 15.5413 168.632 18.384 168.84C18.6613 169.464 18.8347 170.157 18.904 170.92C19.0427 171.683 19.112 172.48 19.112 173.312C18.3493 173.243 17.4133 173.173 16.304 173.104C15.1947 173.104 14.016 173.069 12.768 173C11.52 173 10.3413 173 9.232 173C7.49867 173 5.86933 173.035 4.344 173.104C2.81867 173.173 1.57067 173.243 0.6 173.312C0.6 172.619 0.634667 171.891 0.704 171.128C0.842667 170.296 1.05067 169.568 1.328 168.944C2.576 168.736 3.616 168.285 4.448 167.592C5.28 166.829 6.07733 165.685 6.84 164.16C7.60267 162.565 8.53867 160.416 9.648 157.712L31.176 102.488C31.8693 102.349 32.4933 102.245 33.048 102.176C33.672 102.107 34.4 102.072 35.232 102.072ZM44.696 145.44L45.632 150.12C40.9173 150.12 35.9253 150.155 30.656 150.224C25.3867 150.293 20.6027 150.397 16.304 150.536L17.968 145.44H44.696ZM111.211 173.936C104.417 173.936 98.4193 172.411 93.2193 169.36C88.0887 166.309 84.102 162.011 81.2593 156.464C78.4166 150.917 76.9953 144.4 76.9953 136.912C76.9953 131.088 78.0006 125.992 80.0113 121.624C82.022 117.187 84.726 113.512 88.1233 110.6C91.59 107.688 95.4726 105.504 99.7713 104.048C104.07 102.523 108.507 101.76 113.083 101.76C118.075 101.76 122.721 102.211 127.019 103.112C131.318 104.013 134.993 105.192 138.043 106.648C137.558 109.075 137.246 111.605 137.107 114.24C136.969 116.875 136.899 119.717 136.899 122.768C136.067 123.115 135.201 123.357 134.299 123.496C133.467 123.635 132.497 123.704 131.387 123.704C131.249 118.851 130.382 115.176 128.787 112.68C127.193 110.115 125.113 108.381 122.547 107.48C119.982 106.509 117.105 106.024 113.915 106.024C107.953 106.024 103.065 107.376 99.2513 110.08C95.438 112.784 92.5953 116.32 90.7233 120.688C88.9207 125.056 88.0193 129.701 88.0193 134.624C88.0193 140.933 88.9553 146.688 90.8273 151.888C92.6993 157.019 95.4727 161.144 99.1473 164.264C102.891 167.315 107.606 168.84 113.291 168.84C115.371 168.84 117.209 168.736 118.803 168.528C120.467 168.32 122.131 167.869 123.795 167.176C124.974 166.621 125.841 165.859 126.395 164.888C127.019 163.848 127.331 162.011 127.331 159.376V154.176C127.331 151.056 127.123 148.768 126.707 147.312C126.361 145.856 125.529 144.92 124.211 144.504C122.963 144.088 121.022 143.845 118.387 143.776C118.179 143.291 118.006 142.597 117.867 141.696C117.798 140.725 117.763 139.824 117.763 138.992C119.081 139.061 120.987 139.131 123.483 139.2C125.979 139.269 128.302 139.304 130.451 139.304C132.601 139.304 134.889 139.304 137.315 139.304C139.742 139.235 141.51 139.165 142.619 139.096C142.619 139.72 142.585 140.483 142.515 141.384C142.446 142.285 142.273 143.083 141.995 143.776C140.609 143.845 139.569 144.088 138.875 144.504C138.182 144.92 137.697 145.856 137.419 147.312C137.211 148.768 137.107 151.056 137.107 154.176V158.856C137.107 160.312 137.177 161.629 137.315 162.808C137.523 163.987 137.905 165.096 138.459 166.136C135.478 168.355 131.665 170.227 127.019 171.752C122.374 173.208 117.105 173.936 111.211 173.936ZM167.106 115.904C167.106 113.616 166.898 111.848 166.482 110.6C166.066 109.283 165.338 108.381 164.298 107.896C163.258 107.341 161.802 106.995 159.93 106.856C159.722 106.301 159.583 105.643 159.514 104.88C159.444 104.117 159.41 103.285 159.41 102.384C160.658 102.453 161.975 102.523 163.362 102.592C164.748 102.592 166.17 102.627 167.626 102.696C169.082 102.696 170.538 102.696 171.994 102.696C173.45 102.696 174.871 102.696 176.258 102.696C177.714 102.627 179.1 102.592 180.418 102.592C181.804 102.523 183.191 102.453 184.578 102.384C184.578 103.285 184.543 104.117 184.474 104.88C184.404 105.643 184.266 106.301 184.058 106.856C182.186 106.995 180.73 107.341 179.69 107.896C178.65 108.381 177.922 109.283 177.506 110.6C177.09 111.848 176.882 113.616 176.882 115.904V159.792C176.882 162.08 177.09 163.883 177.506 165.2C177.922 166.448 178.65 167.349 179.69 167.904C180.73 168.389 182.186 168.701 184.058 168.84C184.266 169.395 184.404 170.053 184.474 170.816C184.543 171.579 184.578 172.411 184.578 173.312C182.498 173.243 180.383 173.173 178.234 173.104C176.084 173.035 174.004 173 171.994 173C169.983 173 167.834 173.035 165.546 173.104C163.258 173.173 161.212 173.243 159.41 173.312C159.41 172.411 159.444 171.579 159.514 170.816C159.583 170.053 159.722 169.395 159.93 168.84C161.802 168.701 163.258 168.389 164.298 167.904C165.338 167.349 166.066 166.448 166.482 165.2C166.898 163.883 167.106 162.08 167.106 159.792V115.904ZM212.361 107.272C209.033 107.272 206.502 107.827 204.769 108.936C203.105 109.976 201.892 111.467 201.129 113.408C200.436 115.28 199.846 117.464 199.361 119.96C198.598 119.96 197.732 119.891 196.761 119.752C195.79 119.613 194.993 119.371 194.369 119.024C194.854 116.112 195.236 113.235 195.513 110.392C195.86 107.48 196.033 104.811 196.033 102.384C197.974 102.453 200.332 102.523 203.105 102.592C205.948 102.661 208.998 102.696 212.257 102.696C215.585 102.696 219.017 102.696 222.553 102.696C226.02 102.696 229.452 102.696 232.849 102.696C236.246 102.696 239.366 102.661 242.209 102.592C245.052 102.523 247.409 102.453 249.281 102.384C249.212 104.88 249.212 107.445 249.281 110.08C249.35 112.715 249.558 115.696 249.905 119.024C249.142 119.371 248.345 119.648 247.513 119.856C246.681 119.995 245.745 120.029 244.705 119.96C244.636 115.939 243.665 112.819 241.793 110.6C239.921 108.381 236.974 107.272 232.953 107.272H212.361ZM217.665 105.504H227.441V159.792C227.441 162.08 227.649 163.883 228.065 165.2C228.481 166.448 229.244 167.349 230.353 167.904C231.532 168.389 233.265 168.701 235.553 168.84C235.761 169.395 235.9 170.053 235.969 170.816C236.038 171.579 236.073 172.411 236.073 173.312C233.854 173.243 231.566 173.173 229.209 173.104C226.852 173.035 224.598 173 222.449 173C220.993 173 219.433 173 217.769 173C216.174 173.069 214.58 173.104 212.985 173.104C211.46 173.173 210.073 173.243 208.825 173.312C208.825 172.411 208.86 171.579 208.929 170.816C208.998 170.053 209.137 169.395 209.345 168.84C211.564 168.701 213.262 168.389 214.441 167.904C215.689 167.349 216.521 166.448 216.937 165.2C217.422 163.883 217.665 162.08 217.665 159.792V105.504ZM286.685 102.072L311.437 158.856C312.546 161.491 313.482 163.501 314.245 164.888C315.077 166.205 315.874 167.176 316.637 167.8C317.469 168.355 318.405 168.701 319.445 168.84C319.722 169.741 319.895 170.504 319.965 171.128C320.034 171.752 320.069 172.48 320.069 173.312C319.375 173.243 318.301 173.173 316.844 173.104C315.389 173.104 313.863 173.069 312.269 173C310.674 173 309.322 173 308.212 173C307.381 173 306.41 173 305.3 173C304.191 173.069 303.047 173.104 301.869 173.104C300.69 173.173 299.615 173.208 298.645 173.208C297.743 173.277 297.015 173.312 296.461 173.312C296.461 172.48 296.495 171.683 296.565 170.92C296.634 170.157 296.842 169.464 297.189 168.84C300.031 168.563 301.695 167.939 302.181 166.968C302.666 165.997 302.25 163.917 300.933 160.728L286.477 126.928C285.506 124.779 284.674 122.872 283.981 121.208C283.287 119.544 282.49 117.429 281.589 114.864H282.109C281.277 117.499 280.514 119.752 279.821 121.624C279.197 123.427 278.573 125.16 277.949 126.824L266.093 157.712C264.567 161.803 264.082 164.645 264.637 166.24C265.26 167.765 266.994 168.632 269.837 168.84C270.114 169.464 270.287 170.157 270.356 170.92C270.495 171.683 270.565 172.48 270.565 173.312C269.802 173.243 268.866 173.173 267.757 173.104C266.647 173.104 265.469 173.069 264.22 173C262.972 173 261.794 173 260.684 173C258.951 173 257.322 173.035 255.796 173.104C254.271 173.173 253.023 173.243 252.052 173.312C252.052 172.619 252.087 171.891 252.156 171.128C252.295 170.296 252.503 169.568 252.78 168.944C254.028 168.736 255.068 168.285 255.9 167.592C256.732 166.829 257.53 165.685 258.292 164.16C259.055 162.565 259.991 160.416 261.1 157.712L282.628 102.488C283.322 102.349 283.946 102.245 284.501 102.176C285.125 102.107 285.853 102.072 286.685 102.072ZM296.149 145.44L297.085 150.12C292.37 150.12 287.378 150.155 282.109 150.224C276.839 150.293 272.055 150.397 267.757 150.536L269.42 145.44H296.149ZM340.119 107.272C336.791 107.272 334.26 107.827 332.527 108.936C330.863 109.976 329.649 111.467 328.887 113.408C328.193 115.28 327.604 117.464 327.119 119.96C326.356 119.96 325.489 119.891 324.519 119.752C323.548 119.613 322.751 119.371 322.127 119.024C322.612 116.112 322.993 113.235 323.271 110.392C323.617 107.48 323.791 104.811 323.791 102.384C325.732 102.453 328.089 102.523 330.863 102.592C333.705 102.661 336.756 102.696 340.015 102.696C343.343 102.696 346.775 102.696 350.311 102.696C353.777 102.696 357.209 102.696 360.607 102.696C364.004 102.696 367.124 102.661 369.967 102.592C372.809 102.523 375.167 102.453 377.039 102.384C376.969 104.88 376.969 107.445 377.039 110.08C377.108 112.715 377.316 115.696 377.663 119.024C376.9 119.371 376.103 119.648 375.271 119.856C374.439 119.995 373.503 120.029 372.463 119.96C372.393 115.939 371.423 112.819 369.551 110.6C367.679 108.381 364.732 107.272 360.711 107.272H340.119ZM345.423 105.504H355.199V159.792C355.199 162.08 355.407 163.883 355.823 165.2C356.239 166.448 357.001 167.349 358.111 167.904C359.289 168.389 361.023 168.701 363.311 168.84C363.519 169.395 363.657 170.053 363.727 170.816C363.796 171.579 363.831 172.411 363.831 173.312C361.612 173.243 359.324 173.173 356.967 173.104C354.609 173.035 352.356 173 350.207 173C348.751 173 347.191 173 345.527 173C343.932 173.069 342.337 173.104 340.743 173.104C339.217 173.173 337.831 173.243 336.583 173.312C336.583 172.411 336.617 171.579 336.687 170.816C336.756 170.053 336.895 169.395 337.103 168.84C339.321 168.701 341.02 168.389 342.199 167.904C343.447 167.349 344.279 166.448 344.695 165.2C345.18 163.883 345.423 162.08 345.423 159.792V105.504ZM43.448 275.936L18.384 221.44H19.424L15.888 256.696C15.472 260.371 15.4027 263.213 15.68 265.224C16.0267 267.165 16.7547 268.552 17.864 269.384C19.0427 270.216 20.6373 270.701 22.648 270.84C22.856 271.533 22.9947 272.331 23.064 273.232C23.1333 274.133 23.168 274.827 23.168 275.312C21.504 275.243 19.5973 275.173 17.448 275.104C15.368 275.035 13.5653 275 12.04 275C11 275 9.856 275 8.608 275C7.36 275.069 6.112 275.104 4.864 275.104C3.616 275.173 2.54133 275.243 1.64 275.312C1.64 274.827 1.67467 274.133 1.744 273.232C1.81333 272.331 1.952 271.533 2.16 270.84C3.96267 270.701 5.41867 270.251 6.528 269.488C7.63733 268.725 8.504 267.304 9.128 265.224C9.752 263.144 10.2373 259.989 10.584 255.76L13.912 218.736C14.12 216.309 14.016 214.368 13.6 212.912C13.2533 211.456 12.5253 210.416 11.416 209.792C10.376 209.168 8.88533 208.856 6.944 208.856C6.736 208.163 6.59733 207.4 6.528 206.568C6.45867 205.736 6.424 205.008 6.424 204.384C7.11733 204.453 7.91467 204.523 8.816 204.592C9.71733 204.592 10.6187 204.627 11.52 204.696C12.4907 204.696 13.4267 204.696 14.328 204.696C15.2293 204.696 16.096 204.696 16.928 204.696C17.8293 204.627 18.696 204.592 19.528 204.592C20.4293 204.523 21.3307 204.453 22.232 204.384L49.48 264.6H47.192L70.904 204.384C71.6667 204.453 72.4987 204.523 73.4 204.592C74.3707 204.592 75.3067 204.627 76.208 204.696C77.1787 204.696 78.1147 204.696 79.016 204.696C79.9173 204.696 80.784 204.696 81.616 204.696C82.5173 204.627 83.384 204.592 84.216 204.592C85.1173 204.523 86.0187 204.453 86.92 204.384C86.92 205.147 86.8853 205.909 86.816 206.672C86.7467 207.365 86.608 208.093 86.4 208.856C83.9733 208.856 82.0667 209.584 80.68 211.04C79.3627 212.427 78.912 215.2 79.328 219.36L83.072 257.528C83.4187 260.995 83.8693 263.664 84.424 265.536C84.9787 267.339 85.7413 268.621 86.712 269.384C87.752 270.147 89.0693 270.597 90.664 270.736C90.872 271.499 91.0107 272.296 91.08 273.128C91.1493 273.891 91.184 274.619 91.184 275.312C90.352 275.243 89.416 275.173 88.376 275.104C87.336 275.104 86.2267 275.069 85.048 275C83.9387 275 82.8293 275 81.72 275C80.68 275 79.6747 275 78.704 275C77.456 275 76.0693 275 74.544 275C73.0187 275.069 71.4933 275.104 69.968 275.104C68.512 275.173 67.1947 275.243 66.016 275.312C66.016 274.688 66.0507 273.96 66.12 273.128C66.2587 272.296 66.432 271.533 66.64 270.84C68.8587 270.632 70.4533 270.181 71.424 269.488C72.464 268.795 73.0533 267.616 73.192 265.952C73.4 264.288 73.3307 261.931 72.984 258.88L69.032 221.024H70.176L47.712 275.208C47.088 275.485 46.4293 275.659 45.736 275.728C45.0427 275.867 44.28 275.936 43.448 275.936ZM136.909 275.936C130.045 275.936 124.048 274.341 118.917 271.152C113.786 267.963 109.765 263.629 106.853 258.152C104.01 252.675 102.589 246.504 102.589 239.64C102.589 234.371 103.456 229.552 105.189 225.184C106.992 220.747 109.453 216.933 112.573 213.744C115.693 210.555 119.333 208.093 123.493 206.36C127.653 204.627 132.125 203.76 136.909 203.76C143.496 203.76 149.389 205.285 154.589 208.336C159.789 211.317 163.88 215.512 166.861 220.92C169.842 226.328 171.333 232.568 171.333 239.64C171.333 244.771 170.501 249.555 168.837 253.992C167.173 258.36 164.781 262.208 161.661 265.536C158.61 268.795 154.97 271.36 150.741 273.232C146.581 275.035 141.97 275.936 136.909 275.936ZM138.989 270.84C143.496 270.84 147.344 269.592 150.533 267.096C153.792 264.531 156.288 261.099 158.021 256.8C159.754 252.432 160.621 247.613 160.621 242.344C160.621 236.104 159.477 230.453 157.189 225.392C154.97 220.331 151.92 216.309 148.037 213.328C144.154 210.277 139.717 208.752 134.725 208.752C130.634 208.752 126.96 209.931 123.701 212.288C120.512 214.576 117.981 217.835 116.109 222.064C114.237 226.293 113.301 231.216 113.301 236.832C113.301 241.2 113.856 245.429 114.965 249.52C116.074 253.611 117.704 257.251 119.853 260.44C122.072 263.629 124.776 266.16 127.965 268.032C131.154 269.904 134.829 270.84 138.989 270.84ZM212.563 270.32C216.377 270.32 219.393 269.904 221.611 269.072C223.899 268.24 225.702 266.888 227.019 265.016C228.406 263.075 229.654 260.475 230.763 257.216C231.803 257.563 232.67 257.909 233.363 258.256C234.057 258.603 234.715 259.088 235.339 259.712C234.577 262.139 233.918 264.739 233.363 267.512C232.878 270.285 232.462 272.851 232.115 275.208C230.798 275.208 229.03 275.173 226.811 275.104C224.662 275.104 222.27 275.069 219.635 275C217.07 275 214.505 275 211.939 275C209.998 275 207.745 275 205.179 275C202.683 275 200.118 275 197.483 275C194.918 275.069 192.526 275.104 190.307 275.104C188.089 275.173 186.321 275.243 185.003 275.312C185.003 274.411 185.038 273.579 185.107 272.816C185.177 272.053 185.315 271.395 185.523 270.84C187.395 270.701 188.851 270.355 189.891 269.8C190.931 269.245 191.659 268.275 192.075 266.888C192.561 265.432 192.803 263.352 192.803 260.648V217.904C192.803 215.616 192.595 213.848 192.179 212.6C191.763 211.283 191.001 210.381 189.891 209.896C188.851 209.341 187.43 208.995 185.627 208.856C185.419 208.301 185.281 207.643 185.211 206.88C185.142 206.048 185.107 205.216 185.107 204.384C186.425 204.453 187.881 204.523 189.475 204.592C191.07 204.592 192.595 204.627 194.051 204.696C195.507 204.696 196.721 204.696 197.691 204.696C199.217 204.696 200.673 204.696 202.059 204.696C203.446 204.627 204.798 204.592 206.115 204.592C207.502 204.523 208.889 204.453 210.275 204.384C210.275 205.285 210.241 206.117 210.171 206.88C210.102 207.643 209.963 208.301 209.755 208.856C207.953 208.995 206.497 209.341 205.387 209.896C204.347 210.381 203.619 211.283 203.203 212.6C202.787 213.917 202.579 215.789 202.579 218.216V260.648C202.579 263.213 202.822 265.189 203.307 266.576C203.793 267.963 204.694 268.933 206.011 269.488C207.398 270.043 209.374 270.32 211.939 270.32H212.563ZM247.359 204.384C248.399 204.453 249.681 204.523 251.207 204.592C252.801 204.592 254.465 204.627 256.199 204.696C257.932 204.696 259.561 204.696 261.087 204.696C262.612 204.696 263.86 204.696 264.831 204.696V260.648C264.831 263.213 265.073 265.189 265.559 266.576C266.044 267.963 266.98 268.933 268.367 269.488C269.753 270.043 271.729 270.32 274.295 270.32V275C272.353 275 270.1 275 267.535 275C265.039 275 262.473 275 259.839 275C257.273 275.069 254.881 275.104 252.663 275.104C250.444 275.173 248.676 275.243 247.359 275.312C247.359 274.411 247.393 273.579 247.463 272.816C247.532 272.053 247.671 271.395 247.879 270.84C249.751 270.701 251.207 270.355 252.247 269.8C253.287 269.245 254.015 268.275 254.431 266.888C254.847 265.432 255.055 263.352 255.055 260.648V217.904C255.055 215.616 254.847 213.848 254.431 212.6C254.015 211.283 253.287 210.381 252.247 209.896C251.207 209.341 249.751 208.995 247.879 208.856C247.671 208.301 247.532 207.643 247.463 206.88C247.393 206.048 247.359 205.216 247.359 204.384ZM295.199 257.216C296.239 257.563 297.105 257.909 297.799 258.256C298.492 258.603 299.151 259.088 299.775 259.712C299.012 262.139 298.353 264.739 297.799 267.512C297.313 270.285 296.897 272.851 296.551 275.208C295.233 275.208 293.431 275.173 291.143 275.104C288.924 275.104 286.359 275.069 283.447 275C280.604 275 277.553 275 274.295 275V270.32H274.919C279.841 270.32 283.585 269.835 286.151 268.864C288.716 267.824 290.623 266.333 291.871 264.392C293.119 262.451 294.228 260.059 295.199 257.216ZM287.919 228.2C287.78 230.003 287.711 231.909 287.711 233.92C287.711 235.861 287.711 237.733 287.711 239.536C287.711 241.339 287.711 243.384 287.711 245.672C287.711 247.891 287.78 249.867 287.919 251.6C286.948 251.6 286.081 251.565 285.319 251.496C284.625 251.427 283.897 251.288 283.135 251.08C282.857 247.475 281.887 245.048 280.223 243.8C278.559 242.483 275.612 241.824 271.383 241.824H263.895V237.352H271.383C275.612 237.352 278.559 236.797 280.223 235.688C281.956 234.579 282.857 232.325 282.927 228.928C283.828 228.651 284.625 228.477 285.319 228.408C286.081 228.269 286.948 228.2 287.919 228.2ZM294.055 204.384C294.193 205.979 294.367 207.781 294.575 209.792C294.783 211.733 295.025 213.709 295.303 215.72C295.58 217.661 295.892 219.36 296.239 220.816C295.684 221.301 294.991 221.648 294.159 221.856C293.327 221.995 292.46 222.064 291.559 222.064C291.351 219.915 290.761 217.835 289.791 215.824C288.889 213.813 287.225 212.149 284.799 210.832C282.441 209.515 279.009 208.856 274.503 208.856H262.647L264.831 204.696C270.239 204.696 274.919 204.696 278.871 204.696C282.823 204.627 286.047 204.592 288.543 204.592C291.039 204.523 292.876 204.453 294.055 204.384ZM353.604 275.936L328.54 221.44H329.58L326.044 256.696C325.628 260.371 325.558 263.213 325.836 265.224C326.182 267.165 326.91 268.552 328.02 269.384C329.198 270.216 330.793 270.701 332.804 270.84C333.012 271.533 333.15 272.331 333.22 273.232C333.289 274.133 333.324 274.827 333.324 275.312C331.66 275.243 329.753 275.173 327.604 275.104C325.524 275.035 323.721 275 322.196 275C321.156 275 320.012 275 318.764 275C317.516 275.069 316.268 275.104 315.02 275.104C313.772 275.173 312.697 275.243 311.796 275.312C311.796 274.827 311.83 274.133 311.9 273.232C311.969 272.331 312.108 271.533 312.316 270.84C314.118 270.701 315.574 270.251 316.684 269.488C317.793 268.725 318.66 267.304 319.284 265.224C319.908 263.144 320.393 259.989 320.74 255.76L324.068 218.736C324.276 216.309 324.172 214.368 323.756 212.912C323.409 211.456 322.681 210.416 321.572 209.792C320.532 209.168 319.041 208.856 317.1 208.856C316.892 208.163 316.753 207.4 316.684 206.568C316.614 205.736 316.58 205.008 316.58 204.384C317.273 204.453 318.07 204.523 318.972 204.592C319.873 204.592 320.774 204.627 321.676 204.696C322.646 204.696 323.582 204.696 324.484 204.696C325.385 204.696 326.252 204.696 327.084 204.696C327.985 204.627 328.852 204.592 329.684 204.592C330.585 204.523 331.486 204.453 332.388 204.384L359.636 264.6H357.348L381.06 204.384C381.822 204.453 382.654 204.523 383.556 204.592C384.526 204.592 385.462 204.627 386.364 204.696C387.334 204.696 388.27 204.696 389.172 204.696C390.073 204.696 390.94 204.696 391.772 204.696C392.673 204.627 393.54 204.592 394.372 204.592C395.273 204.523 396.174 204.453 397.076 204.384C397.076 205.147 397.041 205.909 396.972 206.672C396.902 207.365 396.764 208.093 396.556 208.856C394.129 208.856 392.222 209.584 390.836 211.04C389.518 212.427 389.068 215.2 389.484 219.36L393.228 257.528C393.574 260.995 394.025 263.664 394.58 265.536C395.134 267.339 395.897 268.621 396.868 269.384C397.908 270.147 399.225 270.597 400.82 270.736C401.028 271.499 401.166 272.296 401.236 273.128C401.305 273.891 401.34 274.619 401.34 275.312C400.508 275.243 399.572 275.173 398.532 275.104C397.492 275.104 396.382 275.069 395.204 275C394.094 275 392.985 275 391.876 275C390.836 275 389.83 275 388.86 275C387.612 275 386.225 275 384.7 275C383.174 275.069 381.649 275.104 380.124 275.104C378.668 275.173 377.35 275.243 376.172 275.312C376.172 274.688 376.206 273.96 376.276 273.128C376.414 272.296 376.588 271.533 376.796 270.84C379.014 270.632 380.609 270.181 381.58 269.488C382.62 268.795 383.209 267.616 383.348 265.952C383.556 264.288 383.486 261.931 383.14 258.88L379.188 221.024H380.332L357.868 275.208C357.244 275.485 356.585 275.659 355.892 275.728C355.198 275.867 354.436 275.936 353.604 275.936Z" fill="#E6C7B3"/>
</svg>
