<svg width="40" height="40" viewBox="0 0 40 40" fill="none" xmlns="http://www.w3.org/2000/svg">
<g id="Viber">
<path id="Viber_2" fill-rule="evenodd" clip-rule="evenodd" d="M20 0C31.0457 0 40 8.9543 40 20C40 31.0457 31.0457 40 20 40C8.95431 40 0 31.0457 0 20C0 8.9543 8.95431 0 20 0ZM21.1978 8.14676C22.5578 8.31648 23.6567 8.64409 24.8625 9.23223C26.0484 9.8125 26.8074 10.3612 27.8116 11.3598C28.7525 12.3032 29.2743 13.0177 29.8277 14.1268C30.5986 15.6741 31.0374 17.5135 31.1125 19.5385C31.1402 20.2292 31.1205 20.3832 30.9623 20.5805C30.6619 20.9634 30.0016 20.9002 29.7764 20.47C29.7051 20.3279 29.6854 20.2056 29.6617 19.6529C29.6221 18.8043 29.5629 18.2556 29.4443 17.6004C28.9778 15.0307 27.7444 12.9782 25.7757 11.5058C24.1351 10.2743 22.4391 9.67431 20.2175 9.54407C19.4664 9.50065 19.3359 9.47305 19.1659 9.34277C18.8496 9.09408 18.8338 8.50991 19.1382 8.23756C19.324 8.06779 19.4545 8.04412 20.0989 8.06386C20.4349 8.0757 20.929 8.11518 21.1978 8.14676ZM12.1608 8.57307C12.2991 8.62042 12.5126 8.73092 12.6352 8.80989C13.3862 9.30726 15.4775 11.9795 16.1614 13.3137C16.5528 14.0755 16.6832 14.6399 16.5607 15.0584C16.4342 15.5083 16.2247 15.7452 15.2878 16.4991C14.9122 16.803 14.5603 17.1149 14.505 17.1978C14.3627 17.403 14.248 17.8056 14.248 18.0898C14.252 18.749 14.679 19.945 15.2403 20.8648C15.6751 21.5792 16.4539 22.4949 17.2248 23.1976C18.1301 24.0265 18.9286 24.5909 19.83 25.037C20.9883 25.6133 21.6959 25.7593 22.2138 25.5186C22.3443 25.4593 22.4826 25.3804 22.5261 25.3449C22.5656 25.3094 22.87 24.9383 23.2021 24.5278C23.8425 23.7225 23.9888 23.5923 24.4276 23.4423C24.985 23.2529 25.5543 23.3041 26.1275 23.5962C26.5623 23.8213 27.5111 24.4094 28.1238 24.8357C28.9303 25.4001 30.6539 26.8053 30.8872 27.0856C31.2983 27.5909 31.3695 28.2382 31.0927 28.9527C30.8001 29.7065 29.6616 31.1197 28.867 31.7236C28.1476 32.2684 27.6376 32.4775 26.9656 32.5091C26.4121 32.5367 26.1828 32.4894 25.4752 32.1973C19.9249 29.9118 15.4933 26.5014 11.9749 21.816C10.1367 19.3688 8.73726 16.8307 7.78055 14.1979C7.22318 12.6624 7.19553 11.9953 7.65405 11.2098C7.85175 10.8783 8.69378 10.0572 9.30651 9.59937C10.3265 8.84148 10.7969 8.56121 11.1724 8.48229C11.4294 8.42702 11.8761 8.47043 12.1608 8.57307ZM21.4706 11.0085C23.8702 11.3598 25.7282 12.473 26.9458 14.2808C27.6297 15.2992 28.0567 16.4952 28.2029 17.778C28.2543 18.2477 28.2543 19.1043 28.199 19.2464C28.1476 19.3806 27.9815 19.5622 27.8392 19.6372C27.685 19.7161 27.357 19.7082 27.1751 19.6135C26.8707 19.4596 26.7798 19.2148 26.7798 18.5517C26.7798 17.5294 26.5149 16.4518 26.0563 15.6149C25.5345 14.6597 24.7755 13.8703 23.8505 13.3216C23.0559 12.8479 21.8817 12.4966 20.8104 12.4098C20.423 12.3782 20.2095 12.2993 20.0632 12.1295C19.838 11.8729 19.8142 11.5256 20.0039 11.2375C20.2095 10.9177 20.5257 10.8664 21.4706 11.0085ZM22.3126 13.9887C23.0914 14.1545 23.6884 14.4505 24.1983 14.9281C24.8546 15.5478 25.2144 16.2978 25.3724 17.3754C25.4792 18.078 25.4357 18.3543 25.1866 18.5832C24.9534 18.7964 24.5225 18.8043 24.2616 18.603C24.0718 18.4609 24.0125 18.3109 23.969 17.9043C23.9177 17.3635 23.8228 16.9846 23.6607 16.6333C23.3128 15.8873 22.7001 15.5004 21.6644 15.3741C21.1781 15.3149 21.0318 15.2597 20.8737 15.0742C20.5851 14.7307 20.6958 14.1742 21.0951 13.9689C21.2453 13.8939 21.3086 13.886 21.6406 13.9058C21.8462 13.9176 22.1506 13.9531 22.3126 13.9887Z" fill="#FFFFFF"/>
</g>
</svg>
