<svg width="40" height="40" viewBox="0 0 40 40" fill="none" xmlns="http://www.w3.org/2000/svg">
<path d="M20 31.7068C20.8629 31.7068 21.5624 31.0073 21.5624 30.1444C21.5624 29.2815 20.8629 28.582 20 28.582C19.1371 28.582 18.4376 29.2815 18.4376 30.1444C18.4376 31.0073 19.1371 31.7068 20 31.7068Z" fill="#FFFFFF"/>
<path d="M24.3587 9.09961H15.6411C15.1524 9.09961 14.7548 9.47868 14.7548 9.94374V26.4227C14.7548 26.8881 15.1521 27.2668 15.6411 27.2668H24.3587C24.8473 27.2668 25.2449 26.8877 25.2449 26.4227V9.94374C25.2447 9.47828 24.8473 9.09961 24.3587 9.09961Z" fill="#FFFFFF"/>
<path d="M19.9993 0C8.95413 0 0 8.9548 0 19.9996C0 31.0444 8.95413 40 19.9993 40C31.0445 40 39.9997 31.0449 39.9997 19.9996C39.9997 8.95427 31.0445 0 19.9993 0ZM27.7804 29.8695C27.7804 31.3972 26.5417 32.636 25.0139 32.636H14.9853C13.4576 32.636 12.2188 31.3973 12.2188 29.8695V10.0431C12.2188 8.51533 13.4575 7.27653 14.9853 7.27653H25.0139C26.5416 7.27653 27.7804 8.5152 27.7804 10.0431V29.8695Z" fill="#FFFFFF"/>
</svg>
